Coordinates
version=1
nRows=14
nColumns=24
inDegrees=yes

Units are S.I. units (second, meters, Newtons, ...)
Angles are in degrees.

endheader
time	pelvis_tilt	pelvis_list	pelvis_rotation	pelvis_tx	pelvis_ty	pelvis_tz	hip_flexion_r	hip_adduction_r	hip_rotation_r	knee_angle_r	ankle_angle_r	subtalar_angle_r	mtp_angle_r	hip_flexion_l	hip_adduction_l	hip_rotation_l	knee_angle_l	ankle_angle_l	subtalar_angle_l	mtp_angle_l	lumbar_extension	lumbar_bending	lumbar_rotation
      1.30833333	      0.39623535	      5.05927249	     -2.59642667	      0.18683578	      1.06732820	      0.33703416	     15.36188850	     -6.93095860	     -2.21661534	    -68.00422523	     -5.22967001	    -16.69387884	      5.15549395	      7.30835235	      9.15246889	     -6.23948598	     -8.25002653	      1.87367991	      0.50464328	      0.29340002	      3.61817437	     -3.63920379	     -0.36532133
      1.31250000	      0.37407087	      5.06483120	     -2.68424140	      0.19165787	      1.06772503	      0.33699011	     16.04635565	     -6.82744051	     -1.85734165	    -68.02817375	     -4.58543711	    -16.60286152	      5.05877932	      7.00989466	      9.17292304	     -6.29178885	     -8.18591691	      2.07953447	      0.50492427	      0.23969886	      3.62693261	     -3.68438002	     -0.38705450
      1.31666667	      0.35338803	      5.08888953	     -2.76434909	      0.19652524	      1.06811091	      0.33682857	     16.71078430	     -6.75517235	     -1.50945453	    -67.97311352	     -4.00608332	    -16.45531266	      4.96045553	      6.69673143	      9.23123558	     -6.29518987	     -8.08889984	      2.25645977	      0.51377697	      0.18077875	      3.61802639	     -3.69773034	     -0.41298714
      1.32083333	      0.36255674	      5.10608142	     -2.82097025	      0.20139399	      1.06854149	      0.33655548	     17.31742229	     -6.68916334	     -1.20161049	    -67.82405167	     -3.65721142	    -16.39890016	      4.91378998	      6.33912048	      9.29965003	     -6.19351351	     -7.96239749	      2.36261682	      0.54573579	      0.15153720	      3.56593871	     -3.63515694	     -0.45219988
      1.32500000	      0.36936409	      5.11528317	     -2.90014749	      0.20627596	      1.06896182	      0.33642621	     17.91113592	     -6.58680825	     -0.86257405	    -67.62617337	     -3.09084165	    -16.28353188	      4.85993970	      5.98279716	      9.34582933	     -6.16439650	     -7.84442271	      2.54788596	      0.51543611	      0.11344986	      3.53081276	     -3.62973310	     -0.49407202
      1.32916667	      0.36998831	      5.08799631	     -2.93827429	      0.21107729	      1.06938553	      0.33638056	     18.48210994	     -6.43273911	     -0.55499632	    -67.33588961	     -2.67690341	    -16.14131482	      4.82163753	      5.64157191	      9.34062393	     -6.08952302	     -7.75279742	      2.66918695	      0.49997063	      0.08339888	      3.48330111	     -3.62568759	     -0.52835912
      1.33333333	      0.36880860	      5.11910973	     -3.01081604	      0.21602939	      1.06976391	      0.33615021	     19.04674668	     -6.36080143	     -0.23619837	    -67.01476673	     -2.05908316	    -15.90010457	      4.77139008	      5.28305908	      9.42843076	     -6.06417753	     -7.60519787	      2.86139702	      0.45044102	      0.03938379	      3.47681179	     -3.61179137	     -0.57601683
      1.33750000	      0.33610150	      5.09903098	     -3.01984118	      0.22090942	      1.07012145	      0.33604827	     19.60424384	     -6.21745568	      0.04334426	    -66.61267634	     -1.33412703	    -15.36940993	      4.67956781	      4.97667523	      9.43938956	     -6.06533022	     -7.51384501	      3.03451536	      0.34399100	     -0.04949410	      3.46320288	     -3.66379687	     -0.61680786
      1.34166667	      0.34178450	      5.09105228	     -3.04647562	      0.22581191	      1.07051328	      0.33587728	     20.10656178	     -6.09492772	      0.32409006	    -66.13589282	     -0.85808665	    -15.04474023	      4.57879792	      4.60596270	      9.47744406	     -5.95737399	     -7.36970107	      3.14278387	      0.27975686	     -0.14733413	      3.42954180	     -3.63918324	     -0.66771691
      1.34583333	      0.34665647	      5.09432502	     -3.07937685	      0.23069348	      1.07088374	      0.33571017	     20.59716437	     -5.97846676	      0.60052400	    -65.58795809	     -0.59299993	    -14.96900045	      4.54241408	      4.23153004	      9.52962939	     -5.82653639	     -7.20499581	      3.21880248	      0.27696677	     -0.18356165	      3.39006798	     -3.60520266	     -0.70597230
      1.35000000	      0.35536498	      5.07456997	     -3.08904452	      0.23559150	      1.07125471	      0.33560573	     21.04875503	     -5.83145208	      0.85870888	    -64.98987704	      0.00589718	    -14.65142215	      4.46572756	      3.86102523	      9.54849351	     -5.78383599	     -7.07732212	      3.40081234	      0.13535444	     -0.27183765	      3.32909209	     -3.61538696	     -0.76585796
      1.35416667	      0.34715470	      5.07974197	     -3.12203969	      0.24049032	      1.07156464	      0.33545534	     21.51554364	     -5.70978241	      1.13378268	    -64.32307044	      0.22464567	    -14.55582550	      4.43654721	      3.48987191	      9.60271395	     -5.63105371	     -6.89280859	      3.45498423	      0.13967953	     -0.30529277	      3.31367162	     -3.59019762	     -0.80172593
      1.35833333	      0.31205512	      5.05448999	     -3.09598504	      0.24538022	      1.07185449	      0.33540313	     21.96678389	     -5.55040944	      1.35337233	    -63.57242315	      0.41437928	    -14.50956982	      4.42374985	      3.16531533	      9.60346134	     -5.55233476	     -6.76442945	      3.51465676	      0.11677156	     -0.32102877	      3.24178046	     -3.61469307	     -0.82287190
      1.36250000	      0.35188317	      5.06404476	     -3.16862608	      0.25037972	      1.07219968	      0.33523442	     22.33707811	     -5.43100657	      1.64381118	    -62.80003042	      0.87684382	    -14.32318444	      4.39095204	      2.71917482	      9.67520091	     -5.43799701	     -6.53972547	      3.69199214	      0.01426557	     -0.36745955	      3.31034808	     -3.55407906	     -0.88634935
